<svg xmlns="http://www.w3.org/2000/svg" width="860" height="172" viewBox="0 0 860 172" role="img" aria-label="Backend &amp; Database: Node.js, Express, MongoDB, Supabase, JWT">
<title>Backend &amp; Database</title>
<defs><clipPath id="cl"><rect x="4" y="4" width="846" height="158" rx="26"/></clipPath></defs>
<rect x="12" y="12" width="846" height="158" rx="26" fill="#14121F"/>
<rect x="4" y="4" width="846" height="158" rx="26" fill="#E4D9FF" stroke="#14121F" stroke-width="4"/>
<g clip-path="url(#cl)"><g stroke="#D3C4FA" stroke-width="1.2" opacity="0.7"><line x1="34" y1="0" x2="34" y2="172"/><line x1="68" y1="0" x2="68" y2="172"/><line x1="102" y1="0" x2="102" y2="172"/><line x1="136" y1="0" x2="136" y2="172"/><line x1="170" y1="0" x2="170" y2="172"/><line x1="204" y1="0" x2="204" y2="172"/><line x1="238" y1="0" x2="238" y2="172"/><line x1="272" y1="0" x2="272" y2="172"/><line x1="306" y1="0" x2="306" y2="172"/><line x1="340" y1="0" x2="340" y2="172"/><line x1="374" y1="0" x2="374" y2="172"/><line x1="408" y1="0" x2="408" y2="172"/><line x1="442" y1="0" x2="442" y2="172"/><line x1="476" y1="0" x2="476" y2="172"/><line x1="510" y1="0" x2="510" y2="172"/><line x1="544" y1="0" x2="544" y2="172"/><line x1="578" y1="0" x2="578" y2="172"/><line x1="612" y1="0" x2="612" y2="172"/><line x1="646" y1="0" x2="646" y2="172"/><line x1="680" y1="0" x2="680" y2="172"/><line x1="714" y1="0" x2="714" y2="172"/><line x1="748" y1="0" x2="748" y2="172"/><line x1="782" y1="0" x2="782" y2="172"/><line x1="816" y1="0" x2="816" y2="172"/><line x1="850" y1="0" x2="850" y2="172"/><line x1="0" y1="34" x2="860" y2="34"/><line x1="0" y1="68" x2="860" y2="68"/><line x1="0" y1="102" x2="860" y2="102"/><line x1="0" y1="136" x2="860" y2="136"/><line x1="0" y1="170" x2="860" y2="170"/></g></g>
<rect x="32" y="26" width="263" height="40" rx="10" fill="#C8F03C" transform="rotate(-1 32 26)"/>
<text x="163.5" y="53" text-anchor="middle" font-family="'Arial Black', 'Helvetica Neue', Arial, Helvetica, sans-serif" font-weight="900" font-size="19" fill="#14121F" textLength="229" lengthAdjust="spacingAndGlyphs">BACKEND &amp; DATABASE</text>
<path d="M321,28.799999999999997 Q321,40 332.2,40 Q321,40 321,51.2 Q321,40 309.8,40 Q321,40 321,28.799999999999997Z" fill="#14121F"/>
<path d="M816,29.6 Q816,38 824.4,38 Q816,38 816,46.4 Q816,38 807.6,38 Q816,38 816,29.6Z" fill="#14121F"/>
<rect x="36" y="100" width="127" height="42" rx="14" fill="#14121F"/>
<rect x="32" y="96" width="127" height="42" rx="14" fill="#C8F03C" stroke="#14121F" stroke-width="3"/>
<g transform="translate(50 107.0) scale(0.8333333333333334)"><path d="M11.998,24c-0.321,0-0.641-0.084-0.922-0.247l-2.936-1.737c-0.438-0.245-0.224-0.332-0.08-0.383 c0.585-0.203,0.703-0.25,1.328-0.604c0.065-0.037,0.151-0.023,0.218,0.017l2.256,1.339c0.082,0.045,0.197,0.045,0.272,0l8.795-5.076 c0.082-0.047,0.134-0.141,0.134-0.238V6.921c0-0.099-0.053-0.192-0.137-0.242l-8.791-5.072c-0.081-0.047-0.189-0.047-0.271,0 L3.075,6.68C2.99,6.729,2.936,6.825,2.936,6.921v10.15c0,0.097,0.054,0.189,0.139,0.235l2.409,1.392 c1.307,0.654,2.108-0.116,2.108-0.89V7.787c0-0.142,0.114-0.253,0.256-0.253h1.115c0.139,0,0.255,0.112,0.255,0.253v10.021 c0,1.745-0.95,2.745-2.604,2.745c-0.508,0-0.909,0-2.026-0.551L2.28,18.675c-0.57-0.329-0.922-0.945-0.922-1.604V6.921 c0-0.659,0.353-1.275,0.922-1.603l8.795-5.082c0.557-0.315,1.296-0.315,1.848,0l8.794,5.082c0.57,0.329,0.924,0.944,0.924,1.603 v10.15c0,0.659-0.354,1.273-0.924,1.604l-8.794,5.078C12.643,23.916,12.324,24,11.998,24z M19.099,13.993 c0-1.9-1.284-2.406-3.987-2.763c-2.731-0.361-3.009-0.548-3.009-1.187c0-0.528,0.235-1.233,2.258-1.233 c1.807,0,2.473,0.389,2.747,1.607c0.024,0.115,0.129,0.199,0.247,0.199h1.141c0.071,0,0.138-0.031,0.186-0.081 c0.048-0.054,0.074-0.123,0.067-0.196c-0.177-2.098-1.571-3.076-4.388-3.076c-2.508,0-4.004,1.058-4.004,2.833 c0,1.925,1.488,2.457,3.895,2.695c2.88,0.282,3.103,0.703,3.103,1.269c0,0.983-0.789,1.402-2.642,1.402 c-2.327,0-2.839-0.584-3.011-1.742c-0.02-0.124-0.126-0.215-0.253-0.215h-1.137c-0.141,0-0.254,0.112-0.254,0.253 c0,1.482,0.806,3.248,4.655,3.248C17.501,17.007,19.099,15.91,19.099,13.993z" fill="#14121F"/></g>
<text x="80" y="122.0" font-family="'Arial Black', 'Helvetica Neue', Arial, Helvetica, sans-serif" font-weight="900" font-size="14" fill="#14121F" textLength="61" lengthAdjust="spacingAndGlyphs">Node.js</text>
<rect x="177" y="100" width="127" height="42" rx="14" fill="#14121F"/>
<rect x="173" y="96" width="127" height="42" rx="14" fill="#FFFFFF" stroke="#14121F" stroke-width="3"/>
<g transform="translate(191 107.0) scale(0.8333333333333334)"><path d="M12.262 16.666h1.146l6.975-9.325H19.22zm9.778 1.441v.004l-4.334-5.706-.557.74 4.873 6.682H.945V4.173h9.505l5.026 6.7.574-.772-4.374-5.928h.003l-.719-.945H0v17.544h24zM10.917 8.705a3.8 3.8 0 0 0-1.292-1.183q-.796-.45-1.916-.45c-.746 0-1.37.14-1.906.424a3.76 3.76 0 0 0-1.31 1.12 4.9 4.9 0 0 0-.75 1.581 7.17 7.17 0 0 0 0 3.696c.148.567.402 1.101.75 1.573a3.5 3.5 0 0 0 1.31 1.066q.803.39 1.906.389 1.77 0 2.739-.868.966-.867 1.328-2.457h-1.139q-.271 1.084-.977 1.734-.704.651-1.952.65-.812 0-1.392-.342a3.1 3.1 0 0 1-.957-.869 3.5 3.5 0 0 1-.551-1.182 5 5 0 0 1-.17-1.133 9 9 0 0 0-.015-.286 4.5 4.5 0 0 1 .015-.829c.047-.418.147-.83.296-1.223A3.7 3.7 0 0 1 5.54 9.05a2.9 2.9 0 0 1 .922-.742q.541-.28 1.246-.28c.47 0 .869.093 1.23.28q.541.281.922.742.379.461.587 1.057t.225 1.246H5.625l.004.957h6.182a7.3 7.3 0 0 0-.18-1.924 4.9 4.9 0 0 0-.715-1.68z" fill="#14121F"/></g>
<text x="221" y="122.0" font-family="'Arial Black', 'Helvetica Neue', Arial, Helvetica, sans-serif" font-weight="900" font-size="14" fill="#14121F" textLength="61" lengthAdjust="spacingAndGlyphs">Express</text>
<rect x="318" y="100" width="127" height="42" rx="14" fill="#14121F"/>
<rect x="314" y="96" width="127" height="42" rx="14" fill="#B79CFF" stroke="#14121F" stroke-width="3"/>
<g transform="translate(332 107.0) scale(0.8333333333333334)"><path d="M17.193 9.555c-1.264-5.58-4.252-7.414-4.573-8.115-.28-.394-.53-.954-.735-1.44-.036.495-.055.685-.523 1.184-.723.566-4.438 3.682-4.74 10.02-.282 5.912 4.27 9.435 4.888 9.884l.07.05A73.49 73.49 0 0111.91 24h.481c.114-1.032.284-2.056.51-3.07.417-.296.604-.463.85-.693a11.342 11.342 0 003.639-8.464c.01-.814-.103-1.662-.197-2.218zm-5.336 8.195s0-8.291.275-8.29c.213 0 .49 10.695.49 10.695-.381-.045-.765-1.76-.765-2.405z" fill="#14121F"/></g>
<text x="362" y="122.0" font-family="'Arial Black', 'Helvetica Neue', Arial, Helvetica, sans-serif" font-weight="900" font-size="14" fill="#14121F" textLength="61" lengthAdjust="spacingAndGlyphs">MongoDB</text>
<rect x="459" y="100" width="135" height="42" rx="14" fill="#14121F"/>
<rect x="455" y="96" width="135" height="42" rx="14" fill="#FFB3E6" stroke="#14121F" stroke-width="3"/>
<g transform="translate(473 107.0) scale(0.8333333333333334)"><path d="M11.9 1.036c-.015-.986-1.26-1.41-1.874-.637L.764 12.05C-.33 13.427.65 15.455 2.409 15.455h9.579l.113 7.51c.014.985 1.259 1.408 1.873.636l9.262-11.653c1.093-1.375.113-3.403-1.645-3.403h-9.642z" fill="#14121F"/></g>
<text x="503" y="122.0" font-family="'Arial Black', 'Helvetica Neue', Arial, Helvetica, sans-serif" font-weight="900" font-size="14" fill="#14121F" textLength="69" lengthAdjust="spacingAndGlyphs">Supabase</text>
<rect x="608" y="100" width="93" height="42" rx="14" fill="#14121F"/>
<rect x="604" y="96" width="93" height="42" rx="14" fill="#C8F03C" stroke="#14121F" stroke-width="3"/>
<g transform="translate(622 107.0) scale(0.8333333333333334)"><path d="M10.2 0v6.456L12 8.928l1.8-2.472V0zm3.6 6.456v3.072l2.904-.96L20.52 3.36l-2.928-2.136zm2.904 2.112l-1.8 2.496 2.928.936 6.144-1.992-1.128-3.432zM17.832 12l-2.928.936 1.8 2.496 6.144 1.992 1.128-3.432zm-1.128 3.432l-2.904-.96v3.072l3.792 5.232 2.928-2.136zM13.8 17.544L12 15.072l-1.8 2.472V24h3.6zm-3.6 0v-3.072l-2.904.96L3.48 20.64l2.928 2.136zm-2.904-2.112l1.8-2.496L6.168 12 .024 13.992l1.128 3.432zM6.168 12l2.928-.936-1.8-2.496-6.144-1.992-1.128 3.432zm1.128-3.432l2.904.96V6.456L6.408 1.224 3.48 3.36Z" fill="#14121F"/></g>
<text x="652" y="122.0" font-family="'Arial Black', 'Helvetica Neue', Arial, Helvetica, sans-serif" font-weight="900" font-size="14" fill="#14121F" textLength="27" lengthAdjust="spacingAndGlyphs">JWT</text>
</svg>
